<svg width="54" height="57" viewBox="0 0 54 57" fill="none" xmlns="http://www.w3.org/2000/svg">
<path d="M53.3299 28.5004C53.3299 27.3761 52.5336 26.4378 51.4444 26.1233V17.8761C52.5336 17.5616 53.3299 16.6249 53.3299 15.4979C53.3299 14.119 52.1381 13.0017 50.6683 13.0017C49.9662 13.0017 49.3319 13.2615 48.8586 13.6784L41.257 9.56008C41.3005 9.3785 41.3291 9.19247 41.3291 8.99798C41.3291 7.61818 40.1372 6.50078 38.6665 6.50078C37.9645 6.50078 37.331 6.75973 36.8569 7.17677L29.2553 3.06019C29.2998 2.87772 29.3284 2.69169 29.3284 2.49709C29.3284 1.11818 28.1365 0 26.6658 0C25.196 0 24.0041 1.11818 24.0041 2.49709C24.0041 2.69169 24.0329 2.87772 24.0755 3.06019L16.4747 7.17677C15.9988 6.75973 15.3652 6.50078 14.6651 6.50078C13.1953 6.50078 12.0015 7.61818 12.0015 8.99798C12.0015 9.19259 12.0293 9.3785 12.0747 9.56008L4.47402 13.6784C3.99806 13.2614 3.36356 13.0017 2.66165 13.0017C1.19187 13.0017 0 14.119 0 15.4979C0 16.6249 0.79731 17.5615 1.88547 17.8761V26.1233C0.79731 26.4378 0 27.3761 0 28.5004C0 29.6247 0.79731 30.5631 1.88547 30.8776V39.1232C0.79731 39.4359 0 40.3751 0 41.5012C0 42.8801 1.19187 43.9983 2.66165 43.9983C3.36368 43.9983 3.99806 43.7403 4.47402 43.3233L12.0747 47.439C12.0293 47.6224 12.0015 47.8066 12.0015 48.0029C12.0015 49.381 13.1926 50.4983 14.6633 50.4983C15.3653 50.4983 15.9988 50.2394 16.4747 49.8232L24.0755 53.939C24.031 54.1232 24.0032 54.3075 24.0032 54.5038C24.0032 55.8818 25.1933 57 26.664 57C28.1365 57 29.3284 55.8818 29.3284 54.5038C29.3284 54.3074 29.2998 54.1232 29.2543 53.939L36.8551 49.8232C37.331 50.2394 37.9646 50.4983 38.6665 50.4983C40.1372 50.4983 41.3291 49.381 41.3291 48.0029C41.3291 47.8065 41.3004 47.6224 41.255 47.439L48.8558 43.3233C49.3317 43.7404 49.9662 43.9983 50.6681 43.9983C52.1379 43.9983 53.3298 42.8801 53.3298 41.5012C53.3298 40.3751 52.5334 39.4359 51.4443 39.1232V30.8776C52.5336 30.5631 53.3299 29.6247 53.3299 28.5004ZM17.2529 8.43756L24.8554 4.3192C25.3305 4.73623 25.964 4.99596 26.666 4.99596C27.368 4.99596 28.0015 4.73612 28.4757 4.3192L36.0782 8.43756C36.0338 8.61735 36.0051 8.80427 36.0051 8.99798C36.0051 9.19259 36.0338 9.3785 36.0782 9.56008L28.4757 13.6784C28.0007 13.2614 27.3671 13.0017 26.666 13.0017C25.964 13.0017 25.3306 13.2615 24.8546 13.6784L17.2529 9.56008C17.2973 9.3785 17.326 9.19247 17.326 8.99798C17.326 8.80416 17.2973 8.61735 17.2529 8.43756ZM13.8874 45.624C13.4974 45.7378 13.1456 45.9246 12.8538 46.1801L5.25128 42.0634C5.29661 41.8819 5.32533 41.6951 5.32533 41.5013C5.32533 40.3753 4.5279 39.436 3.43974 39.1233V30.8777C3.8305 30.7647 4.18246 30.5754 4.47414 30.3199L12.0749 34.4401C12.0294 34.6208 12.0017 34.8067 12.0017 35.0013C12.0017 36.1256 12.7972 37.064 13.8872 37.3785L13.8874 45.624ZM13.8874 32.6231C13.4974 32.7369 13.1456 32.923 12.8538 33.1783L5.25128 29.0608C5.29661 28.8809 5.32533 28.6933 5.32533 28.5003C5.32533 27.376 4.5279 26.4376 3.43974 26.1231V17.876C3.8305 17.7622 4.18246 17.5763 4.47414 17.3199L12.0749 21.4382C12.0294 21.6189 12.0017 21.8058 12.0017 21.9996C12.0017 23.1255 12.7972 24.0622 13.8872 24.3767L13.8874 32.6231ZM12.8538 20.1784L5.25128 16.06C5.29661 15.8784 5.32533 15.6934 5.32533 15.4978C5.32533 15.3058 5.29661 15.1172 5.25128 14.9375L12.8538 10.8191C13.3289 11.2361 13.9624 11.495 14.6652 11.495C15.3653 11.495 15.9989 11.236 16.4748 10.8191L24.0756 14.9375C24.0311 15.1172 24.0033 15.3058 24.0033 15.4978C24.0033 15.6925 24.0311 15.8784 24.0756 16.06L16.474 20.1784C15.9989 19.7614 15.3654 19.5025 14.6634 19.5025C13.9624 19.5025 13.3289 19.7614 12.8538 20.1784ZM25.8881 52.1266C25.4982 52.2369 25.1463 52.4254 24.8546 52.6792L17.2529 48.5618C17.2973 48.3836 17.326 48.1942 17.326 48.003C17.326 46.877 16.5286 45.9378 15.4414 45.6242V37.3784C15.8313 37.2655 16.1832 37.0769 16.475 36.8214L24.0757 40.9408C24.0312 41.1198 24.0034 41.3066 24.0034 41.5012C24.0034 42.6255 24.798 43.5647 25.8881 43.8793V52.1266ZM25.8881 39.1232C25.4982 39.236 25.1463 39.4246 24.8546 39.6809L17.2529 35.5625C17.2973 35.3819 17.326 35.194 17.326 35.0012C17.326 33.8753 16.5286 32.9368 15.4414 32.6231V24.3767C15.8313 24.2639 16.1832 24.0762 16.475 23.8199L24.0757 27.9384C24.0312 28.1199 24.0034 28.305 24.0034 28.5004C24.0034 29.6247 24.798 30.5631 25.8881 30.8776V39.1232ZM26.6642 26.0034C25.9641 26.0034 25.3306 26.2623 24.8546 26.6793L17.2529 22.5609C17.2973 22.3802 17.326 22.1952 17.326 21.9997C17.326 21.806 17.2973 21.619 17.2529 21.4383L24.8546 17.32C25.3306 17.7379 25.9641 17.996 26.666 17.996C27.3671 17.996 28.0007 17.7379 28.4757 17.32L36.0782 21.4383C36.0328 21.619 36.0041 21.806 36.0041 21.9997C36.0041 22.1926 36.0328 22.3802 36.0782 22.5609L28.4757 26.6776C28.0007 26.2622 27.3671 26.0034 26.666 26.0034C26.666 26.0034 26.666 26.0034 26.6642 26.0034ZM37.8907 45.624C36.8014 45.9377 36.0041 46.8769 36.0041 48.0029C36.0041 48.1942 36.0328 48.3835 36.0782 48.5617L28.4757 52.6791C28.184 52.4254 27.8311 52.2368 27.4421 52.1265V43.8793C28.5293 43.5647 29.3285 42.6255 29.3285 41.5012C29.3285 41.3066 29.2999 41.1198 29.2545 40.9408L36.8552 36.8214C37.1469 37.0768 37.4988 37.2655 37.8907 37.3784V45.624ZM37.8907 32.6231C36.8014 32.9368 36.0041 33.8751 36.0041 35.0012C36.0041 35.194 36.0328 35.3819 36.0782 35.5625L28.4757 39.6809C28.184 39.4246 27.833 39.236 27.4421 39.1232V30.8776C28.5293 30.5639 29.3285 29.6247 29.3285 28.5004C29.3285 28.305 29.2999 28.1199 29.2545 27.9375L36.8552 23.8199C37.1469 24.0762 37.4988 24.2639 37.8907 24.3767V32.6231ZM36.8552 20.1784L29.2545 16.06C29.2999 15.8784 29.3285 15.6934 29.3285 15.4978C29.3285 15.3058 29.2999 15.1172 29.2545 14.9375L36.857 10.8191C37.3312 11.2361 37.9646 11.495 38.6666 11.495C39.3686 11.495 40.003 11.236 40.4781 10.8191L48.0789 14.9375C48.0353 15.1172 48.0048 15.3058 48.0048 15.4978C48.0048 15.6934 48.0353 15.8784 48.0789 16.06L40.4781 20.1784C40.0012 19.7614 39.3677 19.5025 38.6666 19.5025C37.9647 19.5025 37.3313 19.7614 36.8552 20.1784ZM49.8922 39.1232C48.8021 39.4359 48.0048 40.3751 48.0048 41.5012C48.0048 41.6949 48.0353 41.8818 48.0789 42.0633L40.4781 46.18C40.1865 45.9246 39.8336 45.7377 39.4427 45.6239V37.3784C40.5327 37.0639 41.3292 36.1255 41.3292 35.0012C41.3292 34.8066 41.3005 34.6207 41.2552 34.44L48.8559 30.3198C49.1476 30.5752 49.5023 30.7646 49.8921 30.8776L49.8922 39.1232ZM49.8922 26.1233C48.8021 26.4378 48.0048 27.3761 48.0048 28.5004C48.0048 28.6934 48.0353 28.881 48.0789 29.0609L40.4781 33.1785C40.1865 32.9231 39.8336 32.737 39.4427 32.6233V24.3769C40.5327 24.0623 41.3292 23.1257 41.3292 21.9997C41.3292 21.806 41.3005 21.619 41.2552 21.4383L48.8587 17.32C49.1477 17.5763 49.5024 17.7622 49.8922 17.8761V26.1233Z" fill="white"/>
</svg>
