<svg width="55" height="57" viewBox="0 0 55 57" fill="none" xmlns="http://www.w3.org/2000/svg">
<path d="M54.0428 28.5004C54.0428 27.3761 53.2464 26.4378 52.1573 26.1233V17.8761C53.2464 17.5616 54.0428 16.6249 54.0428 15.4979C54.0428 14.119 52.8509 13.0017 51.3812 13.0017C50.6791 13.0017 50.0448 13.2615 49.5715 13.6784L41.9698 9.56008C42.0134 9.3785 42.042 9.19247 42.042 8.99798C42.042 7.61818 40.8501 6.50078 39.3794 6.50078C38.6774 6.50078 38.0439 6.75973 37.5697 7.17677L29.9682 3.06019C30.0127 2.87772 30.0413 2.69169 30.0413 2.49709C30.0413 1.11818 28.8494 0 27.3787 0C25.9089 0 24.717 1.11818 24.717 2.49709C24.717 2.69169 24.7457 2.87772 24.7883 3.06019L17.1876 7.17677C16.7117 6.75973 16.0781 6.50078 15.378 6.50078C13.9082 6.50078 12.7144 7.61818 12.7144 8.99798C12.7144 9.19259 12.7422 9.3785 12.7876 9.56008L5.18691 13.6784C4.71095 13.2614 4.07645 13.0017 3.37455 13.0017C1.90476 13.0017 0.712891 14.119 0.712891 15.4979C0.712891 16.6249 1.5102 17.5615 2.59836 17.8761V26.1233C1.5102 26.4378 0.712891 27.3761 0.712891 28.5004C0.712891 29.6247 1.5102 30.5631 2.59836 30.8776V39.1232C1.5102 39.4359 0.712891 40.3751 0.712891 41.5012C0.712891 42.8801 1.90476 43.9983 3.37455 43.9983C4.07657 43.9983 4.71095 43.7403 5.18691 43.3233L12.7876 47.439C12.7422 47.6224 12.7144 47.8066 12.7144 48.0029C12.7144 49.381 13.9055 50.4983 15.3762 50.4983C16.0782 50.4983 16.7117 50.2394 17.1876 49.8232L24.7883 53.939C24.7438 54.1232 24.7161 54.3075 24.7161 54.5038C24.7161 55.8818 25.9062 57 27.3769 57C28.8494 57 30.0413 55.8818 30.0413 54.5038C30.0413 54.3074 30.0127 54.1232 29.9672 53.939L37.568 49.8232C38.0439 50.2394 38.6775 50.4983 39.3794 50.4983C40.8501 50.4983 42.042 49.381 42.042 48.0029C42.042 47.8065 42.0133 47.6224 41.9679 47.439L49.5687 43.3233C50.0446 43.7404 50.6791 43.9983 51.381 43.9983C52.8508 43.9983 54.0427 42.8801 54.0427 41.5012C54.0427 40.3751 53.2463 39.4359 52.1572 39.1232V30.8776C53.2464 30.5631 54.0428 29.6247 54.0428 28.5004ZM17.9658 8.43756L25.5683 4.3192C26.0433 4.73623 26.6769 4.99596 27.3789 4.99596C28.0809 4.99596 28.7144 4.73612 29.1886 4.3192L36.7911 8.43756C36.7467 8.61735 36.718 8.80427 36.718 8.99798C36.718 9.19259 36.7467 9.3785 36.7911 9.56008L29.1886 13.6784C28.7135 13.2614 28.08 13.0017 27.3789 13.0017C26.6769 13.0017 26.0435 13.2615 25.5675 13.6784L17.9658 9.56008C18.0102 9.3785 18.0389 9.19247 18.0389 8.99798C18.0389 8.80416 18.0102 8.61735 17.9658 8.43756ZM14.6002 45.624C14.2103 45.7378 13.8585 45.9246 13.5667 46.1801L5.96417 42.0634C6.0095 41.8819 6.03822 41.6951 6.03822 41.5013C6.03822 40.3753 5.24079 39.436 4.15263 39.1233V30.8777C4.54339 30.7647 4.89535 30.5754 5.18703 30.3199L12.7878 34.4401C12.7423 34.6208 12.7145 34.8067 12.7145 35.0013C12.7145 36.1256 13.5101 37.064 14.6001 37.3785L14.6002 45.624ZM14.6002 32.6231C14.2103 32.7369 13.8585 32.923 13.5667 33.1783L5.96417 29.0608C6.0095 28.8809 6.03822 28.6933 6.03822 28.5003C6.03822 27.376 5.24079 26.4376 4.15263 26.1231V17.876C4.54339 17.7622 4.89535 17.5763 5.18703 17.3199L12.7878 21.4382C12.7423 21.6189 12.7145 21.8058 12.7145 21.9996C12.7145 23.1255 13.5101 24.0622 14.6001 24.3767L14.6002 32.6231ZM13.5667 20.1784L5.96417 16.06C6.0095 15.8784 6.03822 15.6934 6.03822 15.4978C6.03822 15.3058 6.0095 15.1172 5.96417 14.9375L13.5667 10.8191C14.0418 11.2361 14.6752 11.495 15.3781 11.495C16.0782 11.495 16.7118 11.236 17.1877 10.8191L24.7885 14.9375C24.744 15.1172 24.7162 15.3058 24.7162 15.4978C24.7162 15.6925 24.744 15.8784 24.7885 16.06L17.1869 20.1784C16.7118 19.7614 16.0783 19.5025 15.3763 19.5025C14.6752 19.5025 14.0418 19.7614 13.5667 20.1784ZM26.601 52.1266C26.2111 52.2369 25.8592 52.4254 25.5675 52.6792L17.9658 48.5618C18.0102 48.3836 18.0389 48.1942 18.0389 48.003C18.0389 46.877 17.2415 45.9378 16.1543 45.6242V37.3784C16.5442 37.2655 16.8961 37.0769 17.1879 36.8214L24.7886 40.9408C24.7441 41.1198 24.7163 41.3066 24.7163 41.5012C24.7163 42.6255 25.5109 43.5647 26.601 43.8793V52.1266ZM26.601 39.1232C26.2111 39.236 25.8592 39.4246 25.5675 39.6809L17.9658 35.5625C18.0102 35.3819 18.0389 35.194 18.0389 35.0012C18.0389 33.8753 17.2415 32.9368 16.1543 32.6231V24.3767C16.5442 24.2639 16.8961 24.0762 17.1879 23.8199L24.7886 27.9384C24.7441 28.1199 24.7163 28.305 24.7163 28.5004C24.7163 29.6247 25.5109 30.5631 26.601 30.8776V39.1232ZM27.3771 26.0034C26.677 26.0034 26.0435 26.2623 25.5675 26.6793L17.9658 22.5609C18.0102 22.3802 18.0389 22.1952 18.0389 21.9997C18.0389 21.806 18.0102 21.619 17.9658 21.4383L25.5675 17.32C26.0435 17.7379 26.677 17.996 27.3789 17.996C28.08 17.996 28.7135 17.7379 29.1886 17.32L36.7911 21.4383C36.7457 21.619 36.717 21.806 36.717 21.9997C36.717 22.1926 36.7457 22.3802 36.7911 22.5609L29.1886 26.6776C28.7135 26.2622 28.08 26.0034 27.3789 26.0034C27.3789 26.0034 27.3789 26.0034 27.3771 26.0034ZM38.6035 45.624C37.5143 45.9377 36.717 46.8769 36.717 48.0029C36.717 48.1942 36.7457 48.3835 36.7911 48.5617L29.1886 52.6791C28.8969 52.4254 28.544 52.2368 28.155 52.1265V43.8793C29.2422 43.5647 30.0414 42.6255 30.0414 41.5012C30.0414 41.3066 30.0128 41.1198 29.9674 40.9408L37.5681 36.8214C37.8598 37.0768 38.2117 37.2655 38.6035 37.3784V45.624ZM38.6035 32.6231C37.5143 32.9368 36.717 33.8751 36.717 35.0012C36.717 35.194 36.7457 35.3819 36.7911 35.5625L29.1886 39.6809C28.8969 39.4246 28.5459 39.236 28.155 39.1232V30.8776C29.2422 30.5639 30.0414 29.6247 30.0414 28.5004C30.0414 28.305 30.0128 28.1199 29.9674 27.9375L37.5681 23.8199C37.8598 24.0762 38.2117 24.2639 38.6035 24.3767V32.6231ZM37.5681 20.1784L29.9674 16.06C30.0128 15.8784 30.0414 15.6934 30.0414 15.4978C30.0414 15.3058 30.0128 15.1172 29.9674 14.9375L37.5699 10.8191C38.044 11.2361 38.6775 11.495 39.3795 11.495C40.0815 11.495 40.7159 11.236 41.191 10.8191L48.7918 14.9375C48.7482 15.1172 48.7177 15.3058 48.7177 15.4978C48.7177 15.6934 48.7482 15.8784 48.7918 16.06L41.191 20.1784C40.7141 19.7614 40.0806 19.5025 39.3795 19.5025C38.6776 19.5025 38.0442 19.7614 37.5681 20.1784ZM50.6051 39.1232C49.515 39.4359 48.7177 40.3751 48.7177 41.5012C48.7177 41.6949 48.7482 41.8818 48.7918 42.0633L41.191 46.18C40.8994 45.9246 40.5465 45.7377 40.1556 45.6239V37.3784C41.2456 37.0639 42.0421 36.1255 42.0421 35.0012C42.0421 34.8066 42.0134 34.6207 41.9681 34.44L49.5688 30.3198C49.8605 30.5752 50.2152 30.7646 50.605 30.8776L50.6051 39.1232ZM50.6051 26.1233C49.515 26.4378 48.7177 27.3761 48.7177 28.5004C48.7177 28.6934 48.7482 28.881 48.7918 29.0609L41.191 33.1785C40.8994 32.9231 40.5465 32.737 40.1556 32.6233V24.3769C41.2456 24.0623 42.0421 23.1257 42.0421 21.9997C42.0421 21.806 42.0134 21.619 41.9681 21.4383L49.5716 17.32C49.8606 17.5763 50.2153 17.7622 50.6051 17.8761V26.1233Z" fill="black"/>
</svg>
