<svg width="86" height="86" viewBox="0 0 86 86" fill="none" xmlns="http://www.w3.org/2000/svg">
<circle cx="43" cy="43" r="43" fill="black"/>
<path d="M69.3299 42.5004C69.3299 41.3761 68.5336 40.4378 67.4444 40.1233V31.8761C68.5336 31.5616 69.3299 30.6249 69.3299 29.4979C69.3299 28.119 68.1381 27.0017 66.6683 27.0017C65.9662 27.0017 65.3319 27.2615 64.8586 27.6784L57.257 23.5601C57.3005 23.3785 57.3291 23.1925 57.3291 22.998C57.3291 21.6182 56.1372 20.5008 54.6665 20.5008C53.9645 20.5008 53.331 20.7597 52.8569 21.1768L45.2553 17.0602C45.2998 16.8777 45.3284 16.6917 45.3284 16.4971C45.3284 15.1182 44.1365 14 42.6658 14C41.196 14 40.0041 15.1182 40.0041 16.4971C40.0041 16.6917 40.0329 16.8777 40.0755 17.0602L32.4747 21.1768C31.9988 20.7597 31.3652 20.5008 30.6651 20.5008C29.1953 20.5008 28.0015 21.6182 28.0015 22.998C28.0015 23.1926 28.0293 23.3785 28.0747 23.5601L20.474 27.6784C19.9981 27.2614 19.3636 27.0017 18.6617 27.0017C17.1919 27.0017 16 28.119 16 29.4979C16 30.6249 16.7973 31.5615 17.8855 31.8761V40.1233C16.7973 40.4378 16 41.3761 16 42.5004C16 43.6247 16.7973 44.5631 17.8855 44.8776V53.1232C16.7973 53.4359 16 54.3751 16 55.5012C16 56.8801 17.1919 57.9983 18.6617 57.9983C19.3637 57.9983 19.9981 57.7403 20.474 57.3233L28.0747 61.439C28.0293 61.6224 28.0015 61.8066 28.0015 62.0029C28.0015 63.381 29.1926 64.4983 30.6633 64.4983C31.3653 64.4983 31.9988 64.2394 32.4747 63.8232L40.0755 67.939C40.031 68.1232 40.0032 68.3075 40.0032 68.5038C40.0032 69.8818 41.1933 71 42.664 71C44.1365 71 45.3284 69.8818 45.3284 68.5038C45.3284 68.3074 45.2998 68.1232 45.2543 67.939L52.8551 63.8232C53.331 64.2394 53.9646 64.4983 54.6665 64.4983C56.1372 64.4983 57.3291 63.381 57.3291 62.0029C57.3291 61.8065 57.3004 61.6224 57.255 61.439L64.8558 57.3233C65.3317 57.7404 65.9662 57.9983 66.6681 57.9983C68.1379 57.9983 69.3298 56.8801 69.3298 55.5012C69.3298 54.3751 68.5334 53.4359 67.4443 53.1232V44.8776C68.5336 44.5631 69.3299 43.6247 69.3299 42.5004ZM33.2529 22.4376L40.8554 18.3192C41.3305 18.7362 41.964 18.996 42.666 18.996C43.368 18.996 44.0015 18.7361 44.4757 18.3192L52.0782 22.4376C52.0338 22.6174 52.0051 22.8043 52.0051 22.998C52.0051 23.1926 52.0338 23.3785 52.0782 23.5601L44.4757 27.6784C44.0007 27.2614 43.3671 27.0017 42.666 27.0017C41.964 27.0017 41.3306 27.2615 40.8546 27.6784L33.2529 23.5601C33.2973 23.3785 33.326 23.1925 33.326 22.998C33.326 22.8042 33.2973 22.6174 33.2529 22.4376ZM29.8874 59.624C29.4974 59.7378 29.1456 59.9246 28.8538 60.1801L21.2513 56.0634C21.2966 55.8819 21.3253 55.6951 21.3253 55.5013C21.3253 54.3753 20.5279 53.436 19.4397 53.1233V44.8777C19.8305 44.7647 20.1825 44.5754 20.4741 44.3199L28.0749 48.4401C28.0294 48.6208 28.0017 48.8067 28.0017 49.0013C28.0017 50.1256 28.7972 51.064 29.8872 51.3785L29.8874 59.624ZM29.8874 46.6231C29.4974 46.7369 29.1456 46.923 28.8538 47.1783L21.2513 43.0608C21.2966 42.8809 21.3253 42.6933 21.3253 42.5003C21.3253 41.376 20.5279 40.4376 19.4397 40.1231V31.876C19.8305 31.7622 20.1825 31.5763 20.4741 31.3199L28.0749 35.4382C28.0294 35.6189 28.0017 35.8058 28.0017 35.9996C28.0017 37.1255 28.7972 38.0622 29.8872 38.3767L29.8874 46.6231ZM28.8538 34.1784L21.2513 30.06C21.2966 29.8784 21.3253 29.6934 21.3253 29.4978C21.3253 29.3058 21.2966 29.1172 21.2513 28.9375L28.8538 24.8191C29.3289 25.2361 29.9624 25.495 30.6652 25.495C31.3653 25.495 31.9989 25.236 32.4748 24.8191L40.0756 28.9375C40.0311 29.1172 40.0033 29.3058 40.0033 29.4978C40.0033 29.6925 40.0311 29.8784 40.0756 30.06L32.474 34.1784C31.9989 33.7614 31.3654 33.5025 30.6634 33.5025C29.9624 33.5025 29.3289 33.7614 28.8538 34.1784ZM41.8881 66.1266C41.4982 66.2369 41.1463 66.4254 40.8546 66.6792L33.2529 62.5618C33.2973 62.3836 33.326 62.1942 33.326 62.003C33.326 60.877 32.5286 59.9378 31.4414 59.6242V51.3784C31.8313 51.2655 32.1832 51.0769 32.475 50.8214L40.0757 54.9408C40.0312 55.1198 40.0034 55.3066 40.0034 55.5012C40.0034 56.6255 40.798 57.5647 41.8881 57.8793V66.1266ZM41.8881 53.1232C41.4982 53.236 41.1463 53.4246 40.8546 53.6809L33.2529 49.5625C33.2973 49.3819 33.326 49.194 33.326 49.0012C33.326 47.8753 32.5286 46.9368 31.4414 46.6231V38.3767C31.8313 38.2639 32.1832 38.0762 32.475 37.8199L40.0757 41.9384C40.0312 42.1199 40.0034 42.305 40.0034 42.5004C40.0034 43.6247 40.798 44.5631 41.8881 44.8776V53.1232ZM42.6642 40.0034C41.9641 40.0034 41.3306 40.2623 40.8546 40.6793L33.2529 36.5609C33.2973 36.3802 33.326 36.1952 33.326 35.9997C33.326 35.806 33.2973 35.619 33.2529 35.4383L40.8546 31.32C41.3306 31.7379 41.9641 31.996 42.666 31.996C43.3671 31.996 44.0007 31.7379 44.4757 31.32L52.0782 35.4383C52.0328 35.619 52.0041 35.806 52.0041 35.9997C52.0041 36.1926 52.0328 36.3802 52.0782 36.5609L44.4757 40.6776C44.0007 40.2622 43.3671 40.0034 42.666 40.0034C42.666 40.0034 42.666 40.0034 42.6642 40.0034ZM53.8907 59.624C52.8014 59.9377 52.0041 60.8769 52.0041 62.0029C52.0041 62.1942 52.0328 62.3835 52.0782 62.5617L44.4757 66.6791C44.184 66.4254 43.8311 66.2368 43.4421 66.1265V57.8793C44.5293 57.5647 45.3285 56.6255 45.3285 55.5012C45.3285 55.3066 45.2999 55.1198 45.2545 54.9408L52.8552 50.8214C53.1469 51.0768 53.4988 51.2655 53.8907 51.3784V59.624ZM53.8907 46.6231C52.8014 46.9368 52.0041 47.8751 52.0041 49.0012C52.0041 49.194 52.0328 49.3819 52.0782 49.5625L44.4757 53.6809C44.184 53.4246 43.833 53.236 43.4421 53.1232V44.8776C44.5293 44.5639 45.3285 43.6247 45.3285 42.5004C45.3285 42.305 45.2999 42.1199 45.2545 41.9375L52.8552 37.8199C53.1469 38.0762 53.4988 38.2639 53.8907 38.3767V46.6231ZM52.8552 34.1784L45.2545 30.06C45.2999 29.8784 45.3285 29.6934 45.3285 29.4978C45.3285 29.3058 45.2999 29.1172 45.2545 28.9375L52.857 24.8191C53.3312 25.2361 53.9646 25.495 54.6666 25.495C55.3686 25.495 56.003 25.236 56.4781 24.8191L64.0789 28.9375C64.0353 29.1172 64.0048 29.3058 64.0048 29.4978C64.0048 29.6934 64.0353 29.8784 64.0789 30.06L56.4781 34.1784C56.0012 33.7614 55.3677 33.5025 54.6666 33.5025C53.9647 33.5025 53.3313 33.7614 52.8552 34.1784ZM65.8922 53.1232C64.8021 53.4359 64.0048 54.3751 64.0048 55.5012C64.0048 55.6949 64.0353 55.8818 64.0789 56.0633L56.4781 60.18C56.1865 59.9246 55.8336 59.7377 55.4427 59.6239V51.3784C56.5327 51.0639 57.3292 50.1255 57.3292 49.0012C57.3292 48.8066 57.3005 48.6207 57.2552 48.44L64.8559 44.3198C65.1476 44.5752 65.5023 44.7646 65.8921 44.8776L65.8922 53.1232ZM65.8922 40.1233C64.8021 40.4378 64.0048 41.3761 64.0048 42.5004C64.0048 42.6934 64.0353 42.881 64.0789 43.0609L56.4781 47.1785C56.1865 46.9231 55.8336 46.737 55.4427 46.6233V38.3769C56.5327 38.0623 57.3292 37.1257 57.3292 35.9997C57.3292 35.806 57.3005 35.619 57.2552 35.4383L64.8587 31.32C65.1477 31.5763 65.5024 31.7622 65.8922 31.8761V40.1233Z" fill="white"/>
</svg>
